<svg id="Layer_1" data-name="Layer 1" xmlns="http://www.w3.org/2000/svg" viewBox="0 0 200 200"><defs><style>.cls-1{fill:#64d3d8;}.cls-2{fill:#ea7575;stroke:#ea7575;stroke-width:4px;}.cls-2,.cls-4,.cls-5{stroke-miterlimit:10;}.cls-3,.cls-5{fill:#fff;}.cls-4{fill:#1b3a54;stroke:#1b3a54;}.cls-5{stroke:#fff;stroke-width:3px;}</style></defs><title>icon_3</title><circle class="cls-1" cx="99.76" cy="99.96" r="99.29"/><path class="cls-2" d="M137.1,118.75v4.39a4,4,0,0,1-3.74,4.12h-51v-8.51H137.1m6-6H76.34v20.51h57a9.93,9.93,0,0,0,9.74-10.12V112.75Z"/><path class="cls-2" d="M76.56,132.31h0a3,3,0,0,1-3-3c0-.76.79-76.56.79-82.78,0-4.26-3.07-4.89-4.89-4.89H63.15a3,3,0,1,1,0-6h6.31c5.24,0,10.89,3.41,10.89,10.89,0,6.25-.78,82.08-.79,82.85A3,3,0,0,1,76.56,132.31Z"/><path class="cls-3" d="M91.1,68.16h33.12a5.5,5.5,0,0,1,5.5,5.5v1.6a0,0,0,0,1,0,0H86.78a.44.44,0,0,1-.44-.44V72.92a4.76,4.76,0,0,1,4.76-4.76Z"/><path class="cls-2" d="M140.05,119.69a3,3,0,0,1-3-3V89.09c0-5-2-7.17-6.41-7.17H78a3,3,0,0,1,0-6h52.63c7.77,0,12.41,4.93,12.41,13.17v27.6A3,3,0,0,1,140.05,119.69Z"/><rect class="cls-3" x="71.72" y="88.15" width="73" height="22.96"/><path class="cls-2" d="M134.65,160.5a2,2,0,0,1-2-2V130.89a2,2,0,0,1,4,0V158.5A2,2,0,0,1,134.65,160.5Z"/><rect class="cls-4" x="75.58" y="88.54" width="2.42" height="79.98"/><rect class="cls-4" x="36.8" y="127.31" width="79.98" height="2.42"/><rect class="cls-4" x="36.8" y="127.31" width="79.98" height="2.42" transform="translate(-68.39 91.95) rotate(-45)"/><rect class="cls-4" x="75.58" y="88.54" width="2.42" height="79.98" transform="translate(-68.39 91.95) rotate(-45)"/><rect class="cls-4" x="75.58" y="88.54" width="2.42" height="79.98" transform="translate(-71.53 148.93) rotate(-66.97)"/><rect class="cls-4" x="36.81" y="127.31" width="79.98" height="2.42" transform="translate(-71.53 148.91) rotate(-66.97)"/><rect class="cls-4" x="75.58" y="88.54" width="2.42" height="79.98" transform="translate(-42.51 38.07) rotate(-21.97)"/><rect class="cls-4" x="36.8" y="127.31" width="79.98" height="2.42" transform="translate(-42.54 38.1) rotate(-21.99)"/><path class="cls-4" d="M76.79,171.4a42.88,42.88,0,1,1,42.88-42.87A42.92,42.92,0,0,1,76.79,171.4Zm0-76.75a33.88,33.88,0,1,0,33.88,33.88A33.92,33.92,0,0,0,76.79,94.65Z"/><circle class="cls-4" cx="76.79" cy="128.53" r="9.29"/><path class="cls-2" d="M156.76,143.54c-3.82,0-8.24-.36-9.88-1.87a24.07,24.07,0,0,1-3.36-4.27c-1.41-2.1-2.87-4.27-4.31-4.27H128a2,2,0,0,1,0-4h11.24c3.58,0,5.73,3.21,7.63,6a21.43,21.43,0,0,0,2.75,3.56c1,.69,6.46,1,11.74.65a2,2,0,1,1,.26,4C160.4,143.46,158.66,143.54,156.76,143.54Z"/><path class="cls-5" d="M60.78,43.61H41.06a5,5,0,0,1,0-10H60.78a5,5,0,0,1,0,10Z"/><rect class="cls-5" x="150.63" y="136.65" width="22.08" height="10.25" rx="4.76"/><rect class="cls-4" x="134.3" y="146.11" width="0.7" height="23.19"/><rect class="cls-4" x="123.05" y="157.36" width="23.19" height="0.7"/><rect class="cls-4" x="123.05" y="157.36" width="23.19" height="0.7" transform="translate(-72.08 141.4) rotate(-45)"/><rect class="cls-4" x="134.3" y="146.11" width="0.7" height="23.19" transform="translate(-72.08 141.4) rotate(-45)"/><rect class="cls-4" x="134.3" y="146.11" width="0.7" height="23.19" transform="translate(-63.16 219.94) rotate(-66.97)"/><rect class="cls-4" x="123.05" y="157.36" width="23.19" height="0.7" transform="translate(-63.17 219.91) rotate(-66.97)"/><rect class="cls-4" x="134.3" y="146.11" width="0.7" height="23.19" transform="translate(-49.23 61.84) rotate(-21.97)"/><rect class="cls-4" x="123.05" y="157.36" width="23.19" height="0.7" transform="translate(-49.25 61.89) rotate(-21.99)"/><path class="cls-4" d="M134.65,170.83a13.13,13.13,0,1,1,13.12-13.12A13.14,13.14,0,0,1,134.65,170.83Zm0-22.25a9.13,9.13,0,1,0,9.12,9.13A9.15,9.15,0,0,0,134.65,148.58Z"/><circle class="cls-4" cx="134.65" cy="157.71" r="2.69"/></svg>