<svg id="Layer_1" data-name="Layer 1" xmlns="http://www.w3.org/2000/svg" viewBox="0 0 485.98 515.49"><defs><style>.cls-1{fill:#f7b48f;}.cls-2{fill:#f7c45e;}.cls-3{fill:#ffe357;}.cls-4,.cls-5{fill:#f9dfb2;}.cls-4{stroke:#f4ab76;stroke-miterlimit:10;stroke-width:7px;}.cls-6{fill:#5bd8cc;}</style></defs><title>icon</title><path class="cls-1" d="M185.83,10.27l-26,36.7a5.93,5.93,0,0,0,5.3,8.62h52.08a5.93,5.93,0,0,0,5.3-8.62l-26-36.7A5.94,5.94,0,0,0,185.83,10.27Z"/><circle class="cls-1" cx="191.89" cy="191.78" r="3.42"/><path class="cls-1" d="M261.51,24.1,222.79,47a5.94,5.94,0,0,0,1.34,10L271.7,78.26a6,6,0,0,0,8.36-5.73L271.2,28.41A6,6,0,0,0,261.51,24.1Z"/><circle class="cls-1" cx="193.22" cy="192.39" r="3.42"/><path class="cls-1" d="M325,67.52l-44.7,5.2a5.94,5.94,0,0,0-2.86,9.72l34.85,38.7a6,6,0,0,0,10-1.83l9.84-43.91A5.94,5.94,0,0,0,325,67.52Z"/><circle class="cls-1" cx="194.18" cy="193.48" r="3.42"/><path class="cls-1" d="M365.38,133l-42.95-13.42a5.94,5.94,0,0,0-6.57,7.71L332,176.83a6,6,0,0,0,9.85,2.38l26.86-36.11A6,6,0,0,0,365.38,133Z"/><circle class="cls-1" cx="194.62" cy="194.87" r="3.42"/><path class="cls-1" d="M375.61,209.26l-33.78-29.73a5.94,5.94,0,0,0-9.13,4.37l-5.45,51.8a6,6,0,0,0,8,6.17l39.22-22.06A6,6,0,0,0,375.61,209.26Z"/><circle class="cls-1" cx="194.45" cy="196.32" r="3.42"/><path class="cls-1" d="M353.94,283.08l-18.76-40.9a5.94,5.94,0,0,0-10.12.28l-26,45.1a5.94,5.94,0,0,0,4.82,8.91l44.8-4.2A6,6,0,0,0,353.94,283.08Z"/><circle class="cls-1" cx="193.71" cy="197.58" r="3.42"/><path class="cls-1" d="M304.12,341.71l-.5-45a5.94,5.94,0,0,0-9.36-3.86l-42.14,30.61a6,6,0,0,0,.79,10.1l42.64,14.38A5.94,5.94,0,0,0,304.12,341.71Z"/><circle class="cls-1" cx="192.52" cy="198.42" r="3.42"/><path class="cls-1" d="M234.77,375l17.84-41.31a6,6,0,0,0-7-7.34l-50.95,10.83a5.94,5.94,0,0,0-3.39,9.54l33.11,30.49A5.94,5.94,0,0,0,234.77,375Z"/><circle class="cls-1" cx="191.1" cy="198.71" r="3.42"/><path class="cls-1" d="M157.86,377.21,191,346.72a5.94,5.94,0,0,0-3.39-9.54l-51-10.83a6,6,0,0,0-7,7.34L147.49,375A5.94,5.94,0,0,0,157.86,377.21Z"/><circle class="cls-1" cx="189.67" cy="198.39" r="3.42"/><path class="cls-1" d="M86.71,347.94l42.64-14.38a6,6,0,0,0,.79-10.1L88,292.85a5.94,5.94,0,0,0-9.36,3.86l-.5,45A5.94,5.94,0,0,0,86.71,347.94Z"/><circle class="cls-1" cx="188.5" cy="197.52" r="3.42"/><path class="cls-1" d="M33.62,292.27l44.8,4.2a5.94,5.94,0,0,0,4.82-8.91l-26-45.1a5.94,5.94,0,0,0-10.12-.28l-18.76,40.9A6,6,0,0,0,33.62,292.27Z"/><circle class="cls-1" cx="187.79" cy="196.26" r="3.42"/><path class="cls-1" d="M7.76,219.81,47,241.87a6,6,0,0,0,8-6.17l-5.45-51.8a5.94,5.94,0,0,0-9.13-4.37L6.65,209.26A6,6,0,0,0,7.76,219.81Z"/><circle class="cls-1" cx="187.65" cy="194.8" r="3.42"/><path class="cls-1" d="M13.6,143.1l26.86,36.11a6,6,0,0,0,9.85-2.38L66.4,127.3a5.94,5.94,0,0,0-6.57-7.71L16.88,133A6,6,0,0,0,13.6,143.1Z"/><circle class="cls-1" cx="188.11" cy="193.42" r="3.42"/><path class="cls-1" d="M50.15,75.4,60,119.31a6,6,0,0,0,10,1.83l34.85-38.7a5.94,5.94,0,0,0-2.86-9.72l-44.7-5.2A5.94,5.94,0,0,0,50.15,75.4Z"/><circle class="cls-1" cx="189.1" cy="192.35" r="3.42"/><path class="cls-1" d="M111.07,28.41,102.2,72.53a6,6,0,0,0,8.36,5.73l47.58-21.19a6,6,0,0,0,1.33-10L120.75,24.1A5.94,5.94,0,0,0,111.07,28.41Z"/><circle class="cls-1" cx="190.44" cy="191.77" r="3.42"/><path class="cls-1" d="M185.83,10.27l-26,36.7a5.93,5.93,0,0,0,5.3,8.62h52.08a5.93,5.93,0,0,0,5.3-8.62l-26-36.7A5.94,5.94,0,0,0,185.83,10.27Z"/><circle class="cls-1" cx="191.89" cy="191.78" r="3.42"/><circle class="cls-2" cx="191.48" cy="194.77" r="139.63"/><circle class="cls-3" cx="191.64" cy="195.12" r="97.51"/><circle class="cls-4" cx="190.87" cy="195.55" r="141.32"/><circle class="cls-5" cx="191.64" cy="195.12" r="97.51"/><path class="cls-6" d="M413.6,371.49c-1.25,0-2.49,0-3.72.1a57.37,57.37,0,0,0-79.19-71.69A123.48,123.48,0,0,0,87.88,331.62c0,1.88.05,3.76.14,5.62a88.08,88.08,0,0,0,3.39,176.1H413.6a70.93,70.93,0,0,0,0-141.85Z"/></svg>