<svg id="Layer_1" data-name="Layer 1" xmlns="http://www.w3.org/2000/svg" viewBox="0 0 481.17 472.93"><defs><style>.cls-1{fill:#f7b48f;}.cls-2{fill:#f7c45e;}.cls-3{fill:#ffe357;}.cls-4,.cls-5{fill:#f9dfb2;}.cls-4{stroke:#f4ab76;stroke-miterlimit:10;stroke-width:7px;}</style></defs><title>icon</title><path class="cls-1" d="M231.53,6.1,198.77,52.27a7.48,7.48,0,0,0,6.67,10.85H271a7.48,7.48,0,0,0,6.67-10.85L244.87,6.1A7.47,7.47,0,0,0,231.53,6.1Z"/><circle class="cls-1" cx="239.16" cy="234.44" r="4.3"/><path class="cls-1" d="M326.74,23.5,278,52.35A7.48,7.48,0,0,0,279.71,65l59.85,26.65a7.48,7.48,0,0,0,10.51-7.21l-11.15-55.5A7.47,7.47,0,0,0,326.74,23.5Z"/><circle class="cls-1" cx="240.83" cy="235.21" r="4.3"/><path class="cls-1" d="M406.63,78.12,350.4,84.67a7.47,7.47,0,0,0-3.6,12.22l43.84,48.69a7.48,7.48,0,0,0,12.53-2.31L415.56,88A7.48,7.48,0,0,0,406.63,78.12Z"/><circle class="cls-1" cx="242.04" cy="236.58" r="4.3"/><path class="cls-1" d="M457.4,160.51l-54-16.89a7.48,7.48,0,0,0-8.26,9.7l20.24,62.31a7.48,7.48,0,0,0,12.39,3l33.79-45.42A7.48,7.48,0,0,0,457.4,160.51Z"/><circle class="cls-1" cx="242.59" cy="238.33" r="4.3"/><path class="cls-1" d="M470.27,256.43,427.78,219a7.47,7.47,0,0,0-11.49,5.5l-6.85,65.16a7.47,7.47,0,0,0,10.1,7.76l49.34-27.75A7.48,7.48,0,0,0,470.27,256.43Z"/><circle class="cls-1" cx="242.38" cy="240.15" r="4.3"/><path class="cls-1" d="M443,349.3l-23.61-51.46a7.47,7.47,0,0,0-12.73.35l-32.76,56.74A7.48,7.48,0,0,0,380,366.14l56.37-5.29A7.48,7.48,0,0,0,443,349.3Z"/><circle class="cls-1" cx="241.45" cy="241.73" r="4.3"/><path class="cls-1" d="M380.34,423.05l-.63-56.61a7.48,7.48,0,0,0-11.78-4.86l-53,38.51a7.47,7.47,0,0,0,1,12.7l53.64,18.1A7.48,7.48,0,0,0,380.34,423.05Z"/><circle class="cls-1" cx="239.95" cy="242.79" r="4.3"/><path class="cls-1" d="M293.09,464.93l22.45-52a7.48,7.48,0,0,0-8.78-9.23l-64.09,13.62a7.47,7.47,0,0,0-4.26,12l41.64,38.35A7.47,7.47,0,0,0,293.09,464.93Z"/><circle class="cls-1" cx="238.16" cy="243.16" r="4.3"/><path class="cls-1" d="M196.35,467.7,238,429.35a7.48,7.48,0,0,0-4.27-12l-64.09-13.62a7.48,7.48,0,0,0-8.78,9.23l22.45,52A7.47,7.47,0,0,0,196.35,467.7Z"/><circle class="cls-1" cx="236.37" cy="242.76" r="4.3"/><path class="cls-1" d="M106.85,430.89l53.64-18.1a7.47,7.47,0,0,0,1-12.7l-53-38.51a7.48,7.48,0,0,0-11.78,4.86l-.63,56.61A7.48,7.48,0,0,0,106.85,430.89Z"/><circle class="cls-1" cx="234.89" cy="241.67" r="4.3"/><path class="cls-1" d="M40.05,360.85l56.37,5.29a7.48,7.48,0,0,0,6.06-11.21L69.72,298.19A7.47,7.47,0,0,0,57,297.84L33.38,349.3A7.48,7.48,0,0,0,40.05,360.85Z"/><circle class="cls-1" cx="233.99" cy="240.07" r="4.3"/><path class="cls-1" d="M7.52,269.7l49.34,27.75A7.47,7.47,0,0,0,67,289.69l-6.85-65.16A7.47,7.47,0,0,0,48.62,219L6.13,256.43A7.48,7.48,0,0,0,7.52,269.7Z"/><circle class="cls-1" cx="233.82" cy="238.24" r="4.3"/><path class="cls-1" d="M14.88,173.2l33.78,45.42a7.48,7.48,0,0,0,12.39-3l20.24-62.31a7.48,7.48,0,0,0-8.26-9.7L19,160.51A7.48,7.48,0,0,0,14.88,173.2Z"/><circle class="cls-1" cx="234.4" cy="236.51" r="4.3"/><path class="cls-1" d="M60.84,88l12.39,55.24a7.48,7.48,0,0,0,12.53,2.31L129.6,96.89A7.47,7.47,0,0,0,126,84.67L69.77,78.12A7.48,7.48,0,0,0,60.84,88Z"/><circle class="cls-1" cx="235.64" cy="235.15" r="4.3"/><path class="cls-1" d="M137.48,28.92l-11.15,55.5a7.48,7.48,0,0,0,10.51,7.21L196.69,65a7.47,7.47,0,0,0,1.68-12.63L149.67,23.5A7.48,7.48,0,0,0,137.48,28.92Z"/><circle class="cls-1" cx="237.33" cy="234.43" r="4.3"/><path class="cls-1" d="M231.53,6.1,198.77,52.27a7.48,7.48,0,0,0,6.67,10.85H271a7.48,7.48,0,0,0,6.67-10.85L244.87,6.1A7.47,7.47,0,0,0,231.53,6.1Z"/><circle class="cls-1" cx="239.16" cy="234.44" r="4.3"/><circle class="cls-2" cx="240.17" cy="239.98" r="175.47"/><circle class="cls-3" cx="238.84" cy="238.64" r="122.66"/><circle class="cls-4" cx="237.87" cy="239.18" r="177.78"/><circle class="cls-5" cx="238.84" cy="238.64" r="122.66"/></svg>