<svg id="Layer_1" data-name="Layer 1" xmlns="http://www.w3.org/2000/svg" viewBox="0 0 507.78 528.81"><defs><style>.cls-1{fill:#a5efe3;}.cls-2{fill:#7fe5d6;}.cls-3{fill:#5bd8cc;}.cls-4{fill:#f7b48f;}</style></defs><title>weather</title><path class="cls-1" d="M315.64,53.93A91.93,91.93,0,0,0,298,55.64a121.93,121.93,0,0,0-211.23,28H75.65A72.44,72.44,0,0,0,3.2,156.05c0,40,20.24,67.81,75,82.32C107.17,246,139.58,246,197,246c55.63,0,86.23-2.65,116.1-8.53,47.17-9.27,94.35-41.09,94.35-91.79A91.8,91.8,0,0,0,315.64,53.93Z"/><path class="cls-2" d="M414.46,96.61a90,90,0,0,0-17.18,1.66,118.47,118.47,0,0,0-205.22,27.17H181.3a70.4,70.4,0,0,0-70.39,70.39c0,38.88,19.67,65.89,72.88,80,28.13,7.45,59.63,7.45,115.39,7.45,54.05,0,83.77-2.57,112.79-8.28,45.83-9,91.67-39.93,91.67-89.18A89.18,89.18,0,0,0,414.46,96.61Z"/><path class="cls-3" d="M287.81,210.36a83.26,83.26,0,0,0-16,1.54A110.21,110.21,0,0,0,80.91,237.18h-10A65.48,65.48,0,0,0,5.41,302.65c0,36.17,18.29,61.3,67.79,74.41C99.38,384,128.68,384,180.56,384c50.28,0,77.94-2.39,104.94-7.7,42.63-8.38,85.27-37.15,85.27-83A83,83,0,0,0,287.81,210.36Z"/><path class="cls-4" d="M117.38,326.12h0c2.22,1.24.94,7.78-1.59,16.1-4.62,15.23-10.19,39.08-15.56,57.87l21.5,6.9a11.2,11.2,0,0,1,7.64,9.34,14.56,14.56,0,0,1-.57,8.42c-6.72,18.38-24.68,52.2-33.42,72.15C91.85,505,88.47,511,85.77,511.07h0c-3.5-.92-1.14-8.53.33-16.46,3-15.85,6.92-40.78,11-59.92l-22-6.53h0a12.12,12.12,0,0,1-4.8-2.72c-4.4-3.32-5.88-9.77-3.18-15.93l1.72-3.92c.78-1.77,28.37-49.34,37.61-65.55C110.62,332.76,113.83,325.35,117.38,326.12Z"/><path class="cls-4" d="M261.54,447.49h0c.94.52.4,3.3-.67,6.81-2,6.45-4.31,16.54-6.58,24.5l9.09,2.91a4.76,4.76,0,0,1,3.24,4,6.19,6.19,0,0,1-.24,3.56c-2.85,7.78-10.45,22.09-14.15,30.54-1.49,3.41-2.92,6-4.06,6h0c-1.48-.38-.49-3.61.14-7,1.24-6.71,2.92-17.26,4.67-25.36l-9.32-2.77h0a5,5,0,0,1-2-1.14,5.55,5.55,0,0,1-1.35-6.75l.73-1.66c.33-.75,12-20.88,15.92-27.74C258.68,450.3,260,447.17,261.54,447.49Z"/><path class="cls-4" d="M437.72,322.64h0c2.25,1.25.95,7.89-1.61,16.31-4.69,15.44-10.33,39.61-15.77,58.66l21.79,7a11.37,11.37,0,0,1,7.74,9.47,14.77,14.77,0,0,1-.57,8.53c-6.81,18.63-25,52.91-33.87,73.13-3.59,8.18-7,14.3-9.75,14.36h0c-3.54-.93-1.16-8.65.34-16.68,3-16.07,7-41.34,11.18-60.73l-22.31-6.63h0A12.14,12.14,0,0,1,390,423.3c-4.45-3.36-5.95-9.9-3.22-16.14l1.74-4c.79-1.79,28.76-50,38.12-66.43C430.87,329.37,434.12,321.86,437.72,322.64Z"/></svg>