<svg id="Layer_1" data-name="Layer 1" xmlns="http://www.w3.org/2000/svg" viewBox="0 0 485.98 515.49"><defs><style>.cls-1{fill:#5bd8cc;}</style></defs><title>weather_day</title><path class="cls-1" d="M413.57,169c-1.24,0-2.48,0-3.71.1a57.38,57.38,0,0,0-79.19-71.69A123.48,123.48,0,0,0,87.86,129.1c0,1.89,0,3.76.13,5.62a88.09,88.09,0,0,0,3.4,176.11H413.57a70.93,70.93,0,1,0,0-141.86Z"/><path class="cls-1" d="M170.75,412.61c-1.09,0-2.19,0-3.31,0-38.1-.89-60.41-15.19-80.1-27.81-19.11-12.25-37.16-23.82-70.14-24.4a12.5,12.5,0,0,1,.21-25h.23c40.07.7,63,15.39,83.19,28.34,19.38,12.42,36.1,23.14,67.19,23.87s48.06-10.53,67.63-23.55c20.19-13.44,43.08-28.67,82.39-28.67s61.59,14.89,81.28,28c19.46,13,36.28,24.19,69,24.19a12.5,12.5,0,0,1,0,25c-40.32,0-62.94-15.08-82.9-28.39-19.16-12.78-35.71-23.82-67.41-23.82s-49.62,11.89-68.54,24.48C229.9,397.88,207.77,412.61,170.75,412.61Z"/><path class="cls-1" d="M170.75,504.73l-3.31,0c-38.1-.89-60.41-15.19-80.1-27.81-19.11-12.25-37.16-23.82-70.14-24.4a12.5,12.5,0,0,1,.21-25h.23c40.07.71,63,15.39,83.19,28.35C120.2,468.26,136.93,479,168,479.7s48.06-10.52,67.63-23.55c20.19-13.43,43.08-28.66,82.39-28.66s61.59,14.88,81.28,28c19.46,13,36.28,24.19,69,24.19a12.5,12.5,0,0,1,0,25c-40.32,0-62.94-15.09-82.9-28.4-19.16-12.77-35.71-23.81-67.41-23.81S268.42,464.38,249.5,477C229.9,490,207.77,504.73,170.75,504.73Z"/></svg>