<svg id="Layer_1" data-name="Layer 1" xmlns="http://www.w3.org/2000/svg" viewBox="0 0 481 453.47"><defs><style>.cls-1{fill:#5bd8cc;}.cls-2{fill:none;stroke:#5bd8cc;stroke-miterlimit:10;stroke-width:2px;}</style></defs><title>weather_day</title><rect class="cls-1" x="419.44" y="337.97" width="8.28" height="108.98" rx="2.27"/><rect class="cls-1" x="420.69" y="354.52" width="5.76" height="75.87" rx="1.58" transform="translate(401.57 -184.56) rotate(45)"/><rect class="cls-1" x="420.69" y="354.52" width="5.76" height="75.87" rx="1.58" transform="translate(1000.59 370.45) rotate(135)"/><rect class="cls-1" x="413.86" y="349.69" width="19.31" height="4.14" rx="1.14"/><rect class="cls-1" x="413.86" y="429.7" width="19.31" height="4.14" rx="1.14"/><rect class="cls-1" x="439.78" y="364.09" width="17.31" height="3.71" rx="1.02" transform="translate(394.66 -210.35) rotate(45.45)"/><rect class="cls-1" x="388.77" y="416.42" width="16.67" height="3.57" rx="0.98" transform="translate(416.58 -158.17) rotate(45.45)"/><rect class="cls-1" x="441.08" y="416.76" width="16.85" height="3.61" rx="0.99" transform="translate(1063.47 401.54) rotate(135.45)"/><rect class="cls-1" x="389.09" y="363.87" width="16.87" height="3.62" rx="0.99" transform="translate(937.35 347.42) rotate(135.45)"/><rect class="cls-1" x="72.83" y="367.63" width="17.31" height="3.71" rx="1.02" transform="translate(287.64 52.22) rotate(45.45)"/><rect class="cls-1" x="24.96" y="415.73" width="16.67" height="3.57" rx="0.98" transform="translate(307.49 100.9) rotate(45.45)"/><rect class="cls-1" x="69.93" y="415.71" width="16.85" height="3.61" rx="0.99" transform="translate(427.09 660.1) rotate(135.45)"/><rect class="cls-1" x="21.08" y="368.72" width="16.87" height="3.62" rx="0.99" transform="translate(310.49 613.89) rotate(135.45)"/><rect class="cls-1" x="419.37" y="337.28" width="8.28" height="108.98" rx="2.27" transform="translate(815.28 -31.75) rotate(90)"/><rect class="cls-1" x="453.86" y="389.7" width="19.31" height="4.14" rx="1.14" transform="translate(855.28 -71.75) rotate(90)"/><rect class="cls-1" x="373.85" y="389.7" width="19.31" height="4.14" rx="1.14" transform="translate(775.27 8.26) rotate(90)"/><rect class="cls-1" x="234.59" y="333.6" width="9.66" height="127.22" rx="2.65" transform="translate(-210.74 285.64) rotate(-45)"/><rect class="cls-1" x="234.59" y="333.6" width="9.66" height="127.22" rx="2.65" transform="translate(127.85 847.37) rotate(-135)"/><rect class="cls-1" x="229.32" y="356.85" width="20.2" height="4.33" rx="1.19" transform="translate(327.32 -63.46) rotate(45.45)"/><rect class="cls-1" x="229.32" y="432.61" width="20.2" height="4.33" rx="1.19" transform="translate(381.32 -40.85) rotate(45.45)"/><rect class="cls-1" x="229.32" y="432.52" width="20.2" height="4.33" rx="1.19" transform="translate(714.98 576.52) rotate(135.45)"/><rect class="cls-1" x="229.32" y="356.76" width="20.2" height="4.33" rx="1.19" transform="translate(661.84 446.77) rotate(135.45)"/><rect class="cls-1" x="267.2" y="394.73" width="20.2" height="4.33" rx="1.19" transform="translate(753.35 485.22) rotate(135.45)"/><rect class="cls-1" x="191.44" y="394.73" width="20.2" height="4.33" rx="1.19" transform="translate(623.6 538.37) rotate(135.45)"/><rect class="cls-1" x="191.53" y="394.73" width="20.2" height="4.33" rx="1.19" transform="translate(60.22 819.01) rotate(-134.55)"/><rect class="cls-1" x="267.29" y="394.73" width="20.2" height="4.33" rx="1.19" transform="translate(189.12 873) rotate(-134.55)"/><rect class="cls-2" x="238.54" y="357.56" width="2.29" height="79.11" rx="0.56"/><rect class="cls-2" x="238.54" y="357.56" width="2.29" height="79.11" rx="0.56" transform="translate(636.8 157.42) rotate(90)"/><rect class="cls-1" x="51.5" y="343.5" width="8.08" height="102.83" rx="2.22"/><rect class="cls-1" x="51.5" y="343.5" width="8.08" height="102.83" rx="2.22" transform="translate(450.45 339.38) rotate(90)"/><rect class="cls-1" x="51.5" y="343.5" width="8.08" height="102.83" rx="2.22" transform="translate(295.52 76.4) rotate(45)"/><rect class="cls-1" x="51.5" y="343.5" width="8.08" height="102.83" rx="2.22" transform="translate(374.06 634.9) rotate(135)"/><path class="cls-1" d="M409.35,165.26c-1.23,0-2.46,0-3.67.09a56.66,56.66,0,0,0-78.21-70.8A122,122,0,0,0,87.64,125.88c0,1.86,0,3.71.14,5.55a87,87,0,0,0,3.35,173.94H409.35a70.06,70.06,0,0,0,0-140.11Z"/></svg>