<svg id="Layer_1" data-name="Layer 1" xmlns="http://www.w3.org/2000/svg" viewBox="0 0 481.49 514.2"><defs><style>.cls-1{fill:#5bd8cc;}</style></defs><title>weather_day</title><path class="cls-1" d="M100.86,232.34c-2.67-5-10.81-13.18-10.81-13.18a2.25,2.25,0,0,0-3.15,0s-8.76,8.77-10.81,13.18A12.68,12.68,0,0,0,75,237.65a13.48,13.48,0,0,0,27,0A11.32,11.32,0,0,0,100.86,232.34Z"/><path class="cls-1" d="M258.55,232.34c-2.67-5-10.81-13.18-10.81-13.18a2.25,2.25,0,0,0-3.15,0s-8.77,8.77-10.81,13.18a12.53,12.53,0,0,0-1.09,5.31,13.48,13.48,0,0,0,26.95,0A11.32,11.32,0,0,0,258.55,232.34Z"/><path class="cls-1" d="M415.61,232.34c-2.67-5-10.81-13.18-10.81-13.18a2.25,2.25,0,0,0-3.15,0s-8.77,8.77-10.81,13.18a12.53,12.53,0,0,0-1.09,5.31,13.48,13.48,0,0,0,26.95,0A11.32,11.32,0,0,0,415.61,232.34Z"/><path class="cls-1" d="M330.18,361.82c-2.24-5-9.08-13.17-9.08-13.17a1.67,1.67,0,0,0-2.65,0s-7.37,8.77-9.08,13.17a14.64,14.64,0,0,0-.92,5.31c0,7.44,5.07,13.48,11.33,13.48s11.32-6,11.32-13.48A13.17,13.17,0,0,0,330.18,361.82Z"/><path class="cls-1" d="M173.62,362.45c-2.67-5-10.81-13.17-10.81-13.17a2.22,2.22,0,0,0-3.14,0s-8.77,8.76-10.82,13.17a12.68,12.68,0,0,0-1.09,5.31,13.48,13.48,0,0,0,27,0A11.32,11.32,0,0,0,173.62,362.45Z"/><path class="cls-1" d="M249.47,460.78c-2.67-5-10.82-13.18-10.82-13.18a2.23,2.23,0,0,0-3.14,0s-8.77,8.77-10.81,13.18a12.53,12.53,0,0,0-1.09,5.31,13.48,13.48,0,0,0,26.95,0A11.3,11.3,0,0,0,249.47,460.78Z"/><path class="cls-1" d="M409.17,166c-1.23,0-2.46,0-3.67.1A56.67,56.67,0,0,0,327.29,95.3,122,122,0,0,0,87.47,126.63c0,1.86,0,3.71.13,5.55A87,87,0,0,0,91,306.12H409.17a70.06,70.06,0,0,0,0-140.11Z"/></svg>