<svg id="Layer_1" data-name="Layer 1" xmlns="http://www.w3.org/2000/svg" viewBox="0 0 507.78 397.43"><defs><style>.cls-1{fill:#a5efe3;}.cls-2{fill:#7fe5d6;}.cls-3{fill:#5bd8cc;}</style></defs><title>weather_day</title><path class="cls-1" d="M315.64,54.93A91.93,91.93,0,0,0,298,56.64a121.93,121.93,0,0,0-211.23,28H75.65A72.44,72.44,0,0,0,3.2,157.05c0,40,20.24,67.81,75,82.32C107.17,247,139.58,247,197,247c55.63,0,86.23-2.65,116.1-8.53,47.17-9.27,94.35-41.09,94.35-91.79A91.8,91.8,0,0,0,315.64,54.93Z"/><path class="cls-2" d="M414.46,97.61a90,90,0,0,0-17.18,1.66,118.47,118.47,0,0,0-205.22,27.17H181.3a70.4,70.4,0,0,0-70.39,70.39c0,38.88,19.67,65.89,72.88,80,28.13,7.45,59.63,7.45,115.39,7.45,54.05,0,83.77-2.57,112.79-8.28,45.83-9,91.67-39.93,91.67-89.18A89.18,89.18,0,0,0,414.46,97.61Z"/><path class="cls-3" d="M287.81,211.36a83.26,83.26,0,0,0-16,1.54A110.21,110.21,0,0,0,80.91,238.18h-10A65.48,65.48,0,0,0,5.41,303.65c0,36.17,18.29,61.3,67.79,74.41C99.38,385,128.68,385,180.56,385c50.28,0,77.94-2.39,104.94-7.7,42.63-8.38,85.27-37.15,85.27-83A83,83,0,0,0,287.81,211.36Z"/></svg>